<?xml version="1.0" standalone="no"?>
<!DOCTYPE svg PUBLIC "-//W3C//DTD SVG 20010904//EN"
 "http://www.w3.org/TR/2001/REC-SVG-20010904/DTD/svg10.dtd">
<svg version="1.0" xmlns="http://www.w3.org/2000/svg"
 width="24.000000pt" height="24.000000pt" viewBox="0 0 24.000000 24.000000"
 preserveAspectRatio="xMidYMid meet">

<g transform="translate(0.000000,24.000000) scale(0.100000,-0.100000)"
fill="#000000" stroke="none">
<path d="M55 172 c-16 -11 -36 -26 -44 -36 -12 -14 -11 -19 5 -37 58 -64 150
-64 208 0 19 21 19 21 0 42 -45 50 -116 63 -169 31z m99 -18 c31 -30 9 -84
-34 -84 -10 0 -26 7 -34 16 -31 30 -9 84 34 84 10 0 26 -7 34 -16z"/>
<path d="M100 134 c-11 -12 -10 -18 3 -32 16 -15 18 -15 34 0 13 14 14 20 3
32 -16 20 -24 20 -40 0z"/>
</g>
</svg>
